<?xml version="1.0" standalone="no"?>
<!DOCTYPE svg PUBLIC "-//W3C//DTD SVG 20010904//EN"
 "http://www.w3.org/TR/2001/REC-SVG-20010904/DTD/svg10.dtd">
<svg version="1.0" xmlns="http://www.w3.org/2000/svg"
 width="1212.000000pt" height="922.000000pt" viewBox="0 0 1212.000000 922.000000"
 preserveAspectRatio="xMidYMid meet">

<g transform="translate(0.000000,922.000000) scale(0.100000,-0.100000)"
fill="#000000" stroke="none">
<path d="M0 4610 l0 -4610 6060 0 6060 0 0 4610 0 4610 -6060 0 -6060 0 0
-4610z m7721 3825 c283 -25 524 -45 537 -45 43 0 21 -32 -62 -89 -25 -18 -57
-42 -70 -54 -65 -62 -98 -87 -107 -81 -5 3 -8 2 -7 -3 2 -5 -25 -35 -59 -67
-57 -53 -68 -58 -64 -33 1 5 -3 6 -8 2 -6 -3 -8 -11 -5 -19 3 -7 -19 -34 -48
-60 -95 -86 -328 -319 -406 -406 -42 -47 -79 -87 -83 -90 -3 -3 -57 -72 -121
-155 -255 -332 -293 -391 -337 -523 -24 -70 -25 -104 -11 -218 9 -76 28 -323
36 -489 4 -72 17 -183 30 -242 l4 -22 -42 19 c-31 14 -66 20 -125 20 l-82 0
-50 49 c-89 86 -204 113 -299 69 -90 -42 -278 -252 -426 -474 l-67 -101 -82
-7 c-45 -3 -99 -11 -120 -17 -22 -6 -41 -8 -43 -6 -3 3 13 33 35 68 26 41 41
76 41 97 0 39 -15 42 -25 5 -3 -16 -24 -64 -46 -109 -31 -64 -46 -84 -73 -97
-31 -14 -36 -14 -47 -1 -7 9 -31 25 -53 36 -23 11 -42 21 -44 23 -3 3 81 202
113 265 23 46 27 63 22 110 -2 31 -17 82 -31 114 -31 68 -33 113 -6 166 16 32
19 56 17 132 -3 116 3 127 131 278 117 137 226 240 365 348 184 142 236 205
452 552 201 322 378 577 397 572 5 -1 7 2 3 8 -4 6 7 27 23 48 31 40 245 386
271 439 10 21 23 32 37 33 12 0 253 -20 535 -45z m-6081 -3085 l0 -350 475 0
475 0 0 350 0 350 115 0 115 0 0 -886 0 -885 -112 3 -113 3 -3 438 -2 437
-475 0 -475 0 0 -440 0 -441 -112 3 -113 3 -3 883 -2 882 115 0 115 0 0 -350z
m3143 -457 c3 -679 6 -818 19 -871 10 -45 12 -65 4 -68 -43 -15 -182 -42 -187
-36 -10 11 -28 91 -39 167 -5 40 -10 401 -10 843 l0 772 104 0 105 0 4 -807z
m2037 17 l0 -790 360 0 360 0 0 -90 0 -90 -475 0 -475 0 0 880 0 880 115 0
115 0 0 -790z m1195 776 c93 -48 107 -157 30 -225 -30 -26 -44 -31 -85 -31
-41 0 -55 5 -84 30 -63 56 -70 131 -18 188 49 53 102 66 157 38z m-985 -277
c0 -15 -7 -29 -15 -33 -12 -4 -15 5 -14 57 1 61 1 61 14 32 8 -16 14 -42 15
-56z m-3129 -197 c231 -64 352 -254 366 -574 l6 -128 -452 0 -452 0 5 -32 c3
-18 8 -57 11 -87 28 -249 237 -361 543 -291 53 12 119 31 145 41 26 11 54 19
61 19 11 0 66 -129 66 -153 0 -10 -191 -69 -268 -82 -114 -21 -303 -19 -383 3
-260 72 -404 319 -385 662 18 334 161 561 394 625 74 21 265 19 343 -3z m1459
-7 c5 -13 14 -64 21 -112 20 -159 22 -161 69 -79 47 83 114 152 178 183 52 25
67 28 167 28 98 0 116 -3 165 -26 82 -38 152 -114 189 -203 56 -136 65 -191
66 -406 0 -174 -2 -203 -23 -274 -65 -226 -192 -358 -381 -397 -54 -11 -280
-7 -378 7 l-43 6 0 -246 0 -246 -100 0 -100 0 0 743 c-1 667 -5 825 -26 963
l-6 42 83 20 c110 26 108 26 119 -3z m3734 -40 c-1 -51 2 -65 14 -65 11 0 14
12 10 63 l-4 62 33 2 c19 2 33 -2 33 -8 0 -6 -9 -9 -20 -6 -19 5 -20 0 -20
-78 0 -71 3 -84 18 -88 9 -2 4 -3 -13 -1 -16 3 -32 10 -36 16 -6 9 -13 8 -26
-5 -11 -9 -34 -17 -53 -19 -19 -1 -37 -5 -40 -8 -3 -3 -32 -23 -65 -44 -34
-22 -52 -30 -42 -18 14 15 15 22 6 28 -7 4 -10 3 -6 -3 4 -6 1 -16 -7 -22 -8
-7 -17 -23 -20 -38 -7 -25 -7 -25 -28 -7 -21 19 -21 19 -10 -3 10 -17 8 -25
-8 -45 -11 -12 -19 -17 -20 -10 0 6 5 12 11 12 5 0 7 5 3 11 -9 15 -25 -11
-19 -32 6 -19 -30 -55 -40 -39 -3 5 -11 8 -16 4 -5 -3 -6 -11 -2 -17 4 -7 8
-18 10 -26 2 -19 -32 -62 -43 -53 -5 4 -3 0 3 -8 8 -11 12 -126 13 -398 l1
-382 -101 0 -100 0 0 479 c0 453 -8 637 -31 725 -6 21 -9 39 -7 41 2 2 21 5
43 7 22 2 42 6 45 9 3 4 28 10 57 14 56 7 50 14 68 -75 9 -41 24 -163 22 -175
-1 -5 7 -9 18 -7 19 3 25 8 53 49 11 15 11 15 1 -6 -7 -14 -7 -21 -1 -17 6 3
13 0 15 -6 3 -7 3 3 1 24 -2 25 1 38 11 42 8 3 15 11 15 18 0 18 41 58 61 58
9 0 19 9 22 20 5 19 37 24 53 7 4 -3 21 0 39 8 19 7 36 11 39 7 3 -3 6 -2 6 1
0 17 -41 27 -62 15 -29 -15 -50 -19 -42 -7 3 5 10 7 15 4 5 -4 9 -2 9 3 0 5
12 14 26 21 20 9 30 9 40 0 12 -9 13 -9 8 4 -5 14 5 20 51 26 7 0 10 -24 9
-64z m136 61 c0 -2 -7 -7 -16 -10 -8 -3 -12 -2 -9 4 6 10 25 14 25 6z m-1170
-651 l0 -635 -100 0 -100 0 0 635 0 635 100 0 100 0 0 -635z m1250 631 c0 -2
-7 -7 -16 -10 -8 -3 -12 -2 -9 4 6 10 25 14 25 6z m15 -16 c-3 -5 -12 -10 -18
-10 -7 0 -6 4 3 10 19 12 23 12 15 0z m-319 -19 c-3 -5 -16 -11 -28 -14 -22
-6 -22 -5 -4 8 22 17 40 20 32 6z m304 -21 c8 -5 11 -10 5 -10 -5 0 -17 5 -25
10 -8 5 -10 10 -5 10 6 0 17 -5 25 -10z m140 -53 c0 -6 -11 2 -24 16 -14 15
-27 23 -30 18 -3 -5 1 -14 9 -21 8 -7 15 -17 15 -23 0 -5 -9 -2 -20 8 -21 19
-27 45 -9 45 5 0 7 6 3 13 -4 6 7 -1 24 -17 18 -17 32 -34 32 -39z m-60 -12
c7 -8 8 -15 2 -15 -5 0 -15 7 -22 15 -7 8 -8 15 -2 15 5 0 15 -7 22 -15z m80
-9 c0 -2 -6 -9 -13 -15 -10 -8 -14 -7 -14 4 0 8 6 15 14 15 7 0 13 -2 13 -4z
m14 -32 c3 -8 2 -12 -4 -9 -6 3 -10 10 -10 16 0 14 7 11 14 -7z m-208 -16 c1
-11 -3 -15 -14 -11 -10 2 -3 -8 14 -24 17 -16 33 -37 37 -46 4 -10 -13 2 -36
25 -40 41 -41 44 -22 55 17 11 14 12 -25 8 -37 -3 -40 -3 -15 4 41 12 58 9 61
-11z m186 -28 c1 -9 -1 -18 -6 -20 -5 -3 -10 7 -10 22 -2 28 9 26 16 -2z m32
5 c-4 -8 -1 -15 5 -15 6 0 8 -7 4 -17 -5 -14 -8 -13 -15 6 -4 13 -6 27 -2 32
9 14 14 10 8 -6z m-145 -161 c4 3 5 -11 3 -30 -5 -43 -8 -41 -15 11 -3 22 -3
34 0 27 2 -6 8 -10 12 -8z m-600 -38 c9 -11 9 -16 -1 -22 -7 -4 -10 -4 -6 1 4
4 3 14 -3 22 -6 7 -9 13 -6 13 2 0 10 -6 16 -14z m-2342 -118 c-2 -18 -4 -6
-4 27 0 33 2 48 4 33 2 -15 2 -42 0 -60z m1138 -73 c133 -144 125 -127 125
-250 0 -59 -3 -105 -7 -103 -5 2 -28 13 -53 25 -25 11 -52 33 -62 49 -20 35
-68 82 -68 66 0 -6 5 -14 11 -17 6 -4 8 -13 5 -21 -3 -7 0 -16 6 -20 7 -4 8
-3 4 4 -14 23 1 11 22 -17 l21 -29 -112 1 -112 2 -32 60 c-56 104 -53 173 8
206 18 9 26 7 48 -9 14 -10 26 -27 26 -36 0 -8 3 -15 7 -13 12 4 49 -37 43
-50 -2 -8 -1 -11 4 -8 6 3 14 -3 20 -12 5 -10 12 -15 15 -12 4 3 -5 23 -19 43
-39 57 -75 133 -75 157 0 11 9 34 21 50 34 47 59 37 154 -66z m1992 53 c-3 -7
-5 -2 -5 12 0 14 2 19 5 13 2 -7 2 -19 0 -25z m587 -123 c-4 -8 -11 -15 -16
-15 -6 0 -5 6 2 15 7 8 14 15 16 15 2 0 1 -7 -2 -15z m37 -12 c13 -16 12 -17
-3 -4 -10 7 -18 15 -18 17 0 8 8 3 21 -13z m-5151 -140 c0 -104 -3 -130 -17
-145 -9 -10 -20 -18 -25 -18 -4 0 -8 57 -8 127 0 104 3 130 17 145 9 10 20 18
25 18 4 0 8 -57 8 -127z m1438 -568 c30 -43 32 -51 32 -130 l0 -85 -155 0
-155 0 0 146 0 146 44 51 c98 117 179 336 188 511 1 22 5 -102 8 -276 l5 -316
33 -47z m-1516 -49 c-116 -194 -182 -347 -182 -421 1 -67 62 -154 128 -182 42
-17 94 -8 261 48 108 36 124 39 233 39 l117 0 41 -38 c29 -29 40 -47 40 -69 0
-40 -10 -47 -100 -68 -91 -22 -433 -174 -560 -249 -30 -18 -82 -38 -115 -45
-33 -7 -134 -35 -225 -61 -91 -27 -198 -56 -237 -65 -55 -13 -87 -27 -130 -59
-105 -78 -164 -153 -328 -416 -159 -255 -268 -457 -359 -665 -84 -191 -266
-685 -266 -721 0 -20 -28 -74 -39 -74 -4 0 -32 51 -61 113 -30 61 -107 222
-172 355 -65 134 -118 245 -118 247 0 1 -32 68 -71 149 -68 143 -70 147 -51
164 21 19 164 201 255 324 31 43 103 149 160 235 94 143 217 312 461 631 146
191 172 243 259 518 19 61 52 150 73 198 31 71 42 87 63 92 14 2 84 23 155 46
107 34 135 47 166 78 54 54 66 112 41 187 -19 57 -19 58 -1 77 18 18 18 17 24
-40 10 -98 54 -264 78 -300 24 -35 98 -74 140 -74 46 0 231 41 276 61 54 23
99 76 108 128 4 21 0 68 -9 116 -22 102 -21 144 1 175 16 24 17 20 20 -139 l3
-163 -79 -132z m3380 311 c4 -7 8 -42 8 -79 0 -37 5 -90 11 -118 9 -40 8 -54
-3 -68 -12 -15 -11 -16 4 -4 19 15 38 8 38 -14 0 -8 3 -13 8 -12 4 1 23 -6 42
-17 19 -10 43 -19 53 -20 11 -1 23 -8 28 -16 6 -10 9 -10 9 -1 0 31 28 1 35
-38 0 -3 6 -14 12 -25 16 -30 70 -210 87 -295 9 -41 20 -92 26 -113 6 -20 8
-42 5 -47 -3 -6 -2 -10 3 -10 10 0 35 -50 28 -57 -3 -3 2 -12 10 -20 8 -9 13
-22 10 -30 -3 -8 -2 -11 3 -8 9 5 22 -20 20 -39 0 -5 4 -12 9 -15 11 -7 82
-117 82 -128 0 -4 23 -37 50 -73 35 -47 46 -68 38 -77 -11 -14 -32 -7 -22 8 3
5 10 6 16 3 7 -4 8 -2 4 5 -4 6 -12 8 -18 5 -7 -5 -9 -2 -6 7 3 8 -3 25 -13
38 -11 13 -19 19 -19 13 0 -5 7 -15 15 -22 12 -10 13 -16 4 -26 -9 -11 -8 -14
0 -14 7 0 9 -5 5 -11 -10 -16 18 -30 34 -17 18 16 31 -1 36 -47 2 -22 7 -49
11 -60 19 -56 21 -58 21 -22 0 20 -3 34 -7 31 -4 -2 -10 0 -13 5 -3 5 1 11 8
14 10 4 26 -12 48 -46 18 -28 32 -55 31 -59 -2 -5 2 -8 8 -8 5 0 7 -4 4 -10
-3 -5 -2 -10 4 -10 6 0 15 -8 20 -18 7 -14 6 -19 -4 -19 -8 0 -11 7 -7 16 5
14 3 14 -11 2 -15 -12 -17 -43 -17 -297 0 -183 -4 -284 -10 -284 -6 0 -10 99
-10 277 0 242 2 279 16 294 15 17 15 20 0 44 -9 14 -14 25 -11 25 4 0 -3 14
-15 31 -12 16 -25 28 -28 25 -2 -3 1 -12 7 -20 7 -8 10 -19 7 -24 -3 -5 4 -19
16 -31 15 -17 18 -25 9 -34 -7 -7 -16 -12 -22 -12 -6 0 -9 -202 -9 -567 0
-501 -1 -568 -15 -568 -12 0 -15 -15 -15 -81 0 -76 1 -81 20 -76 15 4 20 0 20
-14 0 -10 -5 -19 -11 -19 -8 0 -8 -5 1 -15 10 -12 9 -15 -8 -15 -11 0 -22 -7
-26 -15 -4 -10 1 -14 16 -12 18 2 23 -6 34 -48 6 -27 12 -40 13 -28 0 12 4 23
9 26 4 2 1 2 -5 1 -7 -2 -13 1 -13 6 0 6 4 10 8 10 5 0 9 7 9 15 0 8 -5 11
-10 8 -6 -4 -8 1 -4 11 4 10 7 22 7 27 0 5 7 9 15 9 12 0 15 -15 15 -72 0 -40
-5 -80 -10 -88 -8 -13 -10 -12 -10 3 0 20 -19 19 -38 -3 -12 -13 -13 -12 -7 5
4 11 9 31 11 45 4 22 3 22 -7 -4 l-12 -29 -18 59 c-10 32 -20 70 -22 84 -3 14
-18 64 -35 112 -27 77 -28 87 -14 91 13 4 12 5 -3 6 -15 1 -24 12 -31 41 -6
22 -8 37 -3 35 4 -3 5 4 2 15 -3 11 -9 17 -14 14 -5 -3 -9 6 -9 20 0 13 -4 26
-9 28 -4 2 -11 14 -15 28 -6 20 -5 22 4 10 8 -12 9 -8 4 14 -5 21 -4 27 5 22
6 -4 11 -3 11 3 0 5 -9 9 -19 8 -12 -1 -17 -7 -15 -17 2 -8 -2 -2 -10 15 -7
16 -11 36 -8 44 3 9 1 12 -6 7 -16 -10 -15 6 1 23 8 10 9 12 0 7 -16 -9 -34
26 -22 45 7 12 9 12 9 0 0 -8 3 -12 6 -8 12 12 -7 28 -20 18 -10 -8 -17 -1
-29 29 -8 22 -11 40 -6 40 5 0 12 -13 15 -30 4 -16 10 -27 15 -24 12 7 -18 64
-34 64 -6 0 -25 28 -41 63 -16 34 -36 78 -46 97 -10 19 -15 41 -12 49 3 8 0
11 -6 7 -7 -4 -21 12 -35 41 -48 97 -162 305 -189 345 -11 16 -17 32 -13 37 3
5 0 13 -6 17 -8 5 -9 3 -4 -7 5 -8 -10 6 -33 31 -46 50 -49 57 -27 57 8 0 15
-6 15 -13 0 -7 3 -15 8 -17 4 -3 7 5 7 18 0 18 -5 22 -29 20 -37 -3 -67 21
-45 37 11 8 10 9 -4 4 -11 -4 -31 3 -50 18 -18 13 -50 29 -72 36 -22 7 -44 15
-50 19 -5 3 -21 7 -33 9 -13 1 -76 23 -140 48 -135 53 -284 104 -304 104 -7 0
-29 13 -48 28 -84 68 -438 257 -555 297 l-90 30 -3 37 c-2 27 2 41 20 58 48
45 76 53 177 48 87 -4 109 -10 236 -60 197 -78 207 -81 252 -69 55 15 117 78
133 136 19 67 4 145 -55 287 -25 62 -48 118 -50 123 -2 6 12 23 32 39 l35 30
17 -22 c35 -46 95 -62 241 -62 113 0 142 4 178 20 47 21 76 50 93 90 9 22 18
125 19 214 0 37 1 38 27 31 15 -3 31 -12 35 -18z m672 -1383 c3 -8 2 -12 -4
-9 -6 3 -10 10 -10 16 0 14 7 11 14 -7z m155 -265 c-12 -7 -12 -10 0 -21 10
-9 12 -10 7 -1 -5 9 -2 11 9 7 14 -6 13 -10 -6 -30 -13 -13 -19 -30 -15 -39 3
-9 2 -14 -3 -11 -5 3 -8 27 -6 53 4 66 4 65 16 57 8 -4 7 -9 -2 -15z m80 -112
c24 -44 25 -47 9 -47 -6 0 -8 3 -5 7 4 3 1 13 -7 22 -8 9 -15 21 -15 26 -1 6
-9 10 -18 10 -34 0 -44 14 -26 35 19 22 21 20 62 -53z m-75 -12 c-4 -8 -10
-15 -15 -15 -5 0 -9 7 -9 15 0 8 7 15 15 15 9 0 12 -6 9 -15z m125 -98 c0 -21
-1 -21 -9 -2 -12 28 -12 37 0 30 6 -3 10 -16 9 -28z m-19 -20 c0 -5 -4 -5 -10
-2 -5 3 -10 14 -10 23 0 15 2 15 10 2 5 -8 10 -19 10 -23z m54 -28 c12 -23 12
-28 2 -20 -12 11 -29 51 -21 51 2 0 10 -14 19 -31z m0 -37 c3 -5 -1 -9 -9 -9
-8 0 -15 4 -15 9 0 4 4 8 9 8 6 0 12 -4 15 -8z m81 -103 c-3 -4 0 -10 5 -12 6
-3 5 -4 -2 -3 -7 2 -13 7 -14 12 -2 22 -17 44 -30 44 -8 0 -14 8 -14 18 1 13
8 8 30 -17 16 -19 27 -38 25 -42z m-60 31 c3 -5 1 -10 -4 -10 -6 0 -11 5 -11
10 0 6 2 10 4 10 3 0 8 -4 11 -10z m87 -85 c-2 -10 1 -14 7 -10 6 3 11 4 11 1
0 -17 -20 -12 -34 8 -14 22 -14 24 2 21 10 -1 16 -9 14 -20z m-22 -21 c0 -8
-19 -13 -24 -6 -3 5 1 9 9 9 8 0 15 -2 15 -3z m110 -96 c8 -14 25 -40 38 -56
16 -22 19 -33 11 -38 -7 -4 -9 -3 -6 3 4 6 -7 25 -23 43 -17 18 -30 38 -30 45
0 21 -18 27 -22 8 -3 -15 -5 -15 -10 3 -8 31 22 25 42 -8z m-53 -20 c-3 -7 -5
-2 -5 12 0 14 2 19 5 13 2 -7 2 -19 0 -25z m110 -96 c-21 -23 -22 -39 -3 -23
10 8 16 9 21 1 4 -6 3 -10 -2 -9 -4 1 -10 0 -13 -1 -22 -8 -39 -7 -34 3 10 18
36 47 42 47 3 0 -2 -8 -11 -18z m83 -87 c13 -14 19 -25 14 -25 -8 1 -50 50
-41 50 2 0 14 -11 27 -25z m-12 -49 c-7 -8 -15 -12 -17 -11 -5 6 10 25 20 25
5 0 4 -6 -3 -14z m-73 -102 c10 -15 12 -23 4 -19 -9 6 -11 3 -6 -8 3 -9 2 -19
-3 -22 -13 -8 -20 9 -10 25 5 8 5 22 -1 32 -15 27 -4 22 16 -8z m-85 -169 c14
-19 14 -19 -2 -6 -10 7 -18 18 -18 24 0 6 1 8 3 6 1 -2 9 -13 17 -24z m-53
-57 c-3 -8 -6 -5 -6 6 -1 11 2 17 5 13 3 -3 4 -12 1 -19z m13 -32 c0 -3 -4 -8
-10 -11 -5 -3 -10 -1 -10 4 0 6 5 11 10 11 6 0 10 -2 10 -4z m-27 -19 c3 -8
-1 -14 -8 -14 -7 0 -11 6 -8 14 3 7 6 13 8 13 2 0 5 -6 8 -13z m-12 -50 c-10
-9 -11 -8 -5 6 3 10 9 15 12 12 3 -3 0 -11 -7 -18z m-56 -57 c-10 -11 -20 -18
-23 -16 -5 6 21 35 32 36 5 0 1 -9 -9 -20z m-38 -22 c-3 -8 -6 -5 -6 6 -1 11
2 17 5 13 3 -3 4 -12 1 -19z m38 -18 c-9 -16 -20 -30 -26 -30 -6 0 -9 -6 -6
-13 3 -8 1 -20 -4 -28 -5 -9 -7 -4 -5 16 1 17 -2 37 -8 45 -8 12 -8 13 4 3 18
-17 30 -16 30 0 0 12 19 37 27 37 2 0 -3 -13 -12 -30z m-297 -105 c0 -14 -1
-25 -2 -23 -1 2 -8 12 -16 22 -10 13 -10 17 -2 12 6 -4 12 -2 12 3 0 6 2 11 4
11 2 0 4 -11 4 -25z m197 -5 c4 -6 10 -8 14 -5 5 2 8 -6 7 -18 -1 -13 -7 -21
-15 -19 -9 2 -11 -3 -7 -13 4 -11 2 -14 -6 -9 -8 5 -9 2 -5 -10 4 -9 3 -14 -2
-11 -5 3 -11 -3 -14 -12 -2 -10 -4 -1 -3 19 0 23 3 33 8 25 6 -9 8 -8 9 3 1 8
1 19 0 24 -1 5 5 4 13 -4 10 -8 16 -8 16 -2 0 6 -10 18 -22 26 -12 9 -17 16
-11 16 7 0 15 -5 18 -10z m-195 -51 c0 -6 -4 -7 -10 -4 -5 3 -10 11 -10 16 0
6 5 7 10 4 6 -3 10 -11 10 -16z m33 6 c4 -8 2 -17 -3 -20 -6 -4 -10 3 -10 14
0 25 6 27 13 6z m41 -60 c-3 -14 -1 -32 6 -40 6 -8 8 -20 4 -26 -4 -7 -3 -9 2
-6 6 3 16 -3 23 -15 10 -16 10 -18 0 -12 -8 5 -11 2 -7 -7 3 -8 -1 -23 -8 -34
-13 -18 -14 -17 -14 15 1 53 -3 80 -12 80 -4 0 -8 -7 -8 -15 0 -26 -15 -16
-17 12 -1 19 1 22 8 12 6 -10 9 -5 9 17 0 27 6 44 17 44 2 0 1 -11 -3 -25z
m-52 -50 c-3 -5 -9 1 -13 15 -12 42 -8 57 6 25 7 -16 10 -34 7 -40z m15 43
c-3 -8 -6 -5 -6 6 -1 11 2 17 5 13 3 -3 4 -12 1 -19z m101 -37 c6 -4 4 -12 -6
-21 -14 -13 -15 -12 -9 4 6 15 5 17 -7 7 -10 -9 -15 -8 -19 3 -7 18 14 40 24
25 4 -6 11 -14 17 -18z m-88 -76 c0 6 5 2 11 -8 5 -9 7 -22 4 -27 -3 -6 -2
-10 4 -10 6 0 8 -7 5 -15 -10 -24 -23 -7 -18 23 5 26 5 26 -10 7 -15 -20 -15
-19 -14 5 1 14 -2 36 -5 50 -6 20 -4 19 8 -5 8 -16 14 -25 15 -20z"/>
<path d="M7804 7978 l-19 -23 23 19 c21 18 27 26 19 26 -2 0 -12 -10 -23 -22z"/>
<path d="M8009 5643 c-13 -16 -12 -17 4 -4 9 7 17 15 17 17 0 8 -8 3 -21 -13z"/>
<path d="M3596 5044 c-67 -21 -146 -100 -174 -175 -20 -54 -47 -178 -40 -184
2 -2 155 -5 341 -7 l337 -3 0 39 c0 97 -50 218 -114 274 -77 67 -232 92 -350
56z"/>
<path d="M5710 5036 c-30 -7 -69 -20 -86 -29 -49 -26 -127 -119 -183 -221
l-51 -93 2 -289 3 -289 55 -12 c30 -7 98 -16 151 -19 82 -6 107 -4 165 14 116
35 174 94 218 221 28 77 39 230 27 370 -15 186 -56 284 -136 327 -53 28 -98
34 -165 20z m84 -698 c-12 -22 -37 -48 -45 -48 -4 0 -6 8 -4 18 2 9 4 23 4 30
1 6 13 12 27 12 17 0 23 -4 18 -12z"/>
<path d="M8598 5193 c7 -3 16 -2 19 1 4 3 -2 6 -13 5 -11 0 -14 -3 -6 -6z"/>
<path d="M8511 5114 c0 -11 3 -14 6 -6 3 7 2 16 -1 19 -3 4 -6 -2 -5 -13z"/>
<path d="M8841 5078 c-7 -11 -8 -17 -2 -14 5 3 11 -1 13 -9 2 -13 5 -13 14 2
8 14 8 21 -1 29 -9 9 -15 7 -24 -8z"/>
<path d="M8914 5035 c17 -7 24 -15 18 -19 -7 -4 -22 -2 -34 5 -23 12 -23 12
-3 -8 20 -20 20 -20 53 5 17 13 32 27 32 30 0 3 -5 1 -12 -6 -13 -13 -32 -17
-25 -4 3 4 -9 7 -26 8 l-32 1 29 -12z"/>
<path d="M8661 4964 c0 -11 3 -14 6 -6 3 7 2 16 -1 19 -3 4 -6 -2 -5 -13z"/>
<path d="M8756 4954 c-11 -8 -16 -14 -10 -14 13 0 39 18 34 24 -3 2 -14 -2
-24 -10z"/>
<path d="M8820 4956 c0 -2 7 -9 15 -16 13 -11 14 -10 9 4 -5 14 -24 23 -24 12z"/>
<path d="M8756 4930 c-27 -5 -25 -6 18 -16 25 -6 46 -10 46 -9 0 0 -8 7 -17
15 -11 10 -29 13 -47 10z"/>
<path d="M8341 3806 c-9 -11 -9 -16 1 -22 7 -4 10 -4 6 1 -4 4 -3 14 3 22 6 7
9 13 6 13 -2 0 -10 -6 -16 -14z"/>
<path d="M8591 3473 c-10 -26 -10 -27 4 -9 8 11 15 23 15 28 0 15 -7 8 -19
-19z"/>
<path d="M8730 3040 c5 -10 8 -19 7 -21 -1 -2 0 -3 2 -2 2 1 12 -8 23 -20 16
-18 16 -16 -2 10 -12 18 -19 37 -16 41 3 5 -1 9 -9 9 -10 0 -11 -5 -5 -17z"/>
<path d="M8806 2913 c-6 -14 -5 -15 5 -6 7 7 10 15 7 18 -3 3 -9 -2 -12 -12z"/>
<path d="M8804 2860 c1 -20 8 -35 16 -38 13 -3 13 -2 0 7 -13 10 -12 14 8 30
12 11 18 22 13 25 -5 4 -12 0 -14 -6 -4 -10 -8 -10 -15 1 -7 10 -9 4 -8 -19z"/>
<path d="M8845 2849 c-4 -6 -5 -12 -2 -15 2 -3 7 2 10 11 7 17 1 20 -8 4z"/>
<path d="M8436 2403 c-6 -14 -5 -15 5 -6 7 7 10 15 7 18 -3 3 -9 -2 -12 -12z"/>
<path d="M8451 2387 c-13 -21 -12 -21 5 -5 10 10 16 20 13 22 -3 3 -11 -5 -18
-17z"/>
<path d="M8543 2295 c-3 -9 -3 -18 -1 -21 3 -3 8 4 11 16 6 23 -1 27 -10 5z"/>
<path d="M8507 2280 c8 -30 21 -34 15 -5 -2 14 -8 25 -12 25 -5 0 -6 -9 -3
-20z"/>
<path d="M8590 2106 c0 -2 8 -10 18 -17 15 -13 16 -12 3 4 -13 16 -21 21 -21
13z"/>
<path d="M8677 1923 c4 -11 8 -12 14 -2 5 8 9 4 12 -14 l4 -27 -1 26 c-1 17
-7 28 -18 30 -11 1 -15 -3 -11 -13z"/>
<path d="M8771 1804 c0 -11 3 -14 6 -6 3 7 2 16 -1 19 -3 4 -6 -2 -5 -13z"/>
<path d="M8850 1575 c0 -9 6 -12 15 -9 8 4 15 7 15 9 0 2 -7 5 -15 9 -9 3 -15
0 -15 -9z"/>
<path d="M8852 1530 c7 -10 14 -18 15 -16 6 6 -9 36 -18 36 -5 0 -4 -9 3 -20z"/>
<path d="M8930 1373 c0 -5 5 -14 12 -21 6 -6 8 -15 4 -19 -4 -4 -11 -1 -16 7
-5 8 -12 11 -16 8 -3 -4 1 -15 11 -24 14 -15 18 -15 26 -3 12 20 11 28 -6 45
-8 9 -15 12 -15 7z"/>
<path d="M8936 1293 c-9 -10 -7 -25 3 -18 5 3 12 -3 14 -12 4 -14 5 -13 6 4 1
23 -11 37 -23 26z"/>
<path d="M8990 1095 c0 -15 4 -24 10 -20 6 3 10 12 10 20 0 8 -4 17 -10 20 -6
4 -10 -5 -10 -20z"/>
<path d="M9165 2369 c-4 -5 -4 -13 -1 -16 3 -4 6 0 6 8 0 11 2 11 10 -1 6 -9
10 -10 10 -3 0 17 -17 25 -25 12z"/>
</g>
</svg>
